<svg xmlns="http://www.w3.org/2000/svg" width="28" height="28" viewBox="0 0 28 28" fill="none">
    <g clip-path="url(#clip0_2_245)">
        <path d="M25.5014 0.5H2.49336C1.39121 0.5 0.5 1.37012 0.5 2.4459V25.5488C0.5 26.6246 1.39121 27.5 2.49336 27.5H25.5014C26.6035 27.5 27.5 26.6246 27.5 25.5541V2.4459C27.5 1.37012 26.6035 0.5 25.5014 0.5ZM8.51035 23.508H4.50254V10.6197H8.51035V23.508ZM6.50645 8.86367C5.21973 8.86367 4.18086 7.8248 4.18086 6.54336C4.18086 5.26191 5.21973 4.22305 6.50645 4.22305C7.78789 4.22305 8.82676 5.26191 8.82676 6.54336C8.82676 7.81953 7.78789 8.86367 6.50645 8.86367ZM23.508 23.508H19.5055V17.2432C19.5055 15.7508 19.4791 13.826 17.4225 13.826C15.3395 13.826 15.023 15.4555 15.023 17.1377V23.508H11.0258V10.6197H14.8648V12.3811H14.9176C15.4502 11.3686 16.758 10.298 18.7039 10.298C22.7592 10.298 23.508 12.9664 23.508 16.4363V23.508Z" fill="#E3E3E3"/>
    </g>
    <defs>
        <clipPath id="clip0_2_245">
            <rect width="27" height="27" fill="white" transform="translate(0.5 0.5)"/>
        </clipPath>
    </defs>
</svg>
