<svg xmlns="http://www.w3.org/2000/svg" width="28" height="28" viewBox="0 0 28 28" fill="none">
    <g clip-path="url(#clip0_2_243)">
        <path d="M8.99393 24.9686C19.1801 24.9686 24.7531 16.5274 24.7531 9.20944C24.7531 8.97214 24.7478 8.72956 24.7372 8.49225C25.8214 7.70824 26.7569 6.73713 27.5 5.62456C26.4903 6.07377 25.4183 6.36715 24.3206 6.49468C25.4764 5.80187 26.3418 4.7135 26.7564 3.43134C25.6691 4.07572 24.48 4.53029 23.2401 4.77553C22.4047 3.88785 21.3001 3.3001 20.0971 3.10315C18.8942 2.90621 17.6598 3.11103 16.585 3.68596C15.5101 4.26088 14.6545 5.17389 14.1506 6.28382C13.6466 7.39375 13.5224 8.63879 13.797 9.82643C11.5953 9.71595 9.44143 9.14401 7.47498 8.14771C5.50853 7.1514 3.7734 5.75296 2.38209 4.04305C1.67495 5.26225 1.45856 6.70495 1.77691 8.07795C2.09526 9.45095 2.92445 10.6512 4.09596 11.4348C3.21646 11.4069 2.35622 11.1701 1.58633 10.744V10.8126C1.58554 12.092 2.02786 13.3323 2.8381 14.3225C3.64834 15.3127 4.77649 15.9917 6.03078 16.2442C5.21606 16.4671 4.36098 16.4996 3.5317 16.3391C3.88564 17.4395 4.57427 18.4018 5.50149 19.092C6.42871 19.7821 7.54826 20.1655 8.70389 20.1887C6.74198 21.7298 4.31845 22.5657 1.82363 22.5618C1.3812 22.5611 0.939199 22.534 0.5 22.4806C3.03446 24.1066 5.98272 24.9702 8.99393 24.9686Z" fill="#E3E3E3"/>
    </g>
    <defs>
        <clipPath id="clip0_2_243">
            <rect width="27" height="27" fill="white" transform="translate(0.5 0.5)"/>
        </clipPath>
    </defs>
</svg>
